<svg height="1422" width="720" xmlns="http://www.w3.org/2000/svg">
<rect height="1422" fill="#555" width="720"></rect>
<text fill="#7f7" font-family="Courier New" font-size="12" xml:space="preserve">
<tspan x="10" y="26">54 megabytes installed</tspan>
<tspan x="10" y="42"></tspan>
<tspan x="10" y="58">node_modules</tspan>
<tspan x="10" y="74">└─┬ autobahn@0.12.0 </tspan>
<tspan x="10" y="90">  ├─┬ bufferutil@3.0.0 </tspan>
<tspan x="10" y="106">  │ ├── bindings@1.2.1 </tspan>
<tspan x="10" y="122">  │ ├── nan@2.5.1 </tspan>
<tspan x="10" y="138">  │ └─┬ prebuild-install@2.1.2 </tspan>
<tspan x="10" y="154">  │   ├── expand-template@1.0.3 </tspan>
<tspan x="10" y="170">  │   ├── github-from-package@0.0.0 </tspan>
<tspan x="10" y="186">  │   ├── minimist@1.2.0 </tspan>
<tspan x="10" y="202">  │   ├─┬ mkdirp@0.5.1 </tspan>
<tspan x="10" y="218">  │   │ └── minimist@0.0.8 </tspan>
<tspan x="10" y="234">  │   ├── node-abi@2.0.0 </tspan>
<tspan x="10" y="250">  │   ├── noop-logger@0.1.1 </tspan>
<tspan x="10" y="266">  │   ├─┬ npmlog@4.0.2 </tspan>
<tspan x="10" y="282">  │   │ ├─┬ are-we-there-yet@1.1.2 </tspan>
<tspan x="10" y="298">  │   │ │ ├── delegates@1.0.0 </tspan>
<tspan x="10" y="314">  │   │ │ └─┬ readable-stream@2.2.9 </tspan>
<tspan x="10" y="330">  │   │ │   ├── buffer-shims@1.0.0 </tspan>
<tspan x="10" y="346">  │   │ │   ├── core-util-is@1.0.2 </tspan>
<tspan x="10" y="362">  │   │ │   ├── inherits@2.0.3 </tspan>
<tspan x="10" y="378">  │   │ │   ├── process-nextick-args@1.0.7 </tspan>
<tspan x="10" y="394">  │   │ │   ├── string_decoder@1.0.0 </tspan>
<tspan x="10" y="410">  │   │ │   └── util-deprecate@1.0.2 </tspan>
<tspan x="10" y="426">  │   │ ├── console-control-strings@1.1.0 </tspan>
<tspan x="10" y="442">  │   │ ├─┬ gauge@2.7.3 </tspan>
<tspan x="10" y="458">  │   │ │ ├── aproba@1.1.1 </tspan>
<tspan x="10" y="474">  │   │ │ ├── has-unicode@2.0.1 </tspan>
<tspan x="10" y="490">  │   │ │ ├── object-assign@4.1.1 </tspan>
<tspan x="10" y="506">  │   │ │ ├── signal-exit@3.0.2 </tspan>
<tspan x="10" y="522">  │   │ │ ├─┬ string-width@1.0.2 </tspan>
<tspan x="10" y="538">  │   │ │ │ ├── code-point-at@1.1.0 </tspan>
<tspan x="10" y="554">  │   │ │ │ └─┬ is-fullwidth-code-point@1.0.0 </tspan>
<tspan x="10" y="570">  │   │ │ │   └── number-is-nan@1.0.1 </tspan>
<tspan x="10" y="586">  │   │ │ └── wide-align@1.1.0 </tspan>
<tspan x="10" y="602">  │   │ └── set-blocking@2.0.0 </tspan>
<tspan x="10" y="618">  │   ├── os-homedir@1.0.2 </tspan>
<tspan x="10" y="634">  │   ├─┬ pump@1.0.2 </tspan>
<tspan x="10" y="650">  │   │ ├── end-of-stream@1.4.0 </tspan>
<tspan x="10" y="666">  │   │ └─┬ once@1.4.0 </tspan>
<tspan x="10" y="682">  │   │   └── wrappy@1.0.2 </tspan>
<tspan x="10" y="698">  │   ├─┬ rc@1.2.1 </tspan>
<tspan x="10" y="714">  │   │ ├── deep-extend@0.4.1 </tspan>
<tspan x="10" y="730">  │   │ ├── ini@1.3.4 </tspan>
<tspan x="10" y="746">  │   │ └── strip-json-comments@2.0.1 </tspan>
<tspan x="10" y="762">  │   ├─┬ simple-get@1.4.3 </tspan>
<tspan x="10" y="778">  │   │ └── unzip-response@1.0.2 </tspan>
<tspan x="10" y="794">  │   ├─┬ tar-fs@1.15.2 </tspan>
<tspan x="10" y="810">  │   │ ├── chownr@1.0.1 </tspan>
<tspan x="10" y="826">  │   │ └─┬ tar-stream@1.5.2 </tspan>
<tspan x="10" y="842">  │   │   └── bl@1.2.0 </tspan>
<tspan x="10" y="858">  │   ├── tunnel-agent@0.4.3 </tspan>
<tspan x="10" y="874">  │   └── xtend@4.0.1 </tspan>
<tspan x="10" y="890">  ├─┬ cbor@3.0.0 </tspan>
<tspan x="10" y="906">  │ ├── bignumber.js@3.0.1 </tspan>
<tspan x="10" y="922">  │ ├─┬ commander@2.9.0 </tspan>
<tspan x="10" y="938">  │ │ └── graceful-readlink@1.0.1 </tspan>
<tspan x="10" y="954">  │ ├─┬ json-text-sequence@0.1.1 </tspan>
<tspan x="10" y="970">  │ │ └── delimit-stream@0.1.0 </tspan>
<tspan x="10" y="986">  │ └── nofilter@0.0.3 </tspan>
<tspan x="10" y="1002">  ├── crypto-js@3.1.8 </tspan>
<tspan x="10" y="1018">  ├─┬ google-closure-compiler@20170218.0.0 </tspan>
<tspan x="10" y="1034">  │ ├─┬ chalk@1.1.3 </tspan>
<tspan x="10" y="1050">  │ │ ├── ansi-styles@2.2.1 </tspan>
<tspan x="10" y="1066">  │ │ ├── escape-string-regexp@1.0.5 </tspan>
<tspan x="10" y="1082">  │ │ ├─┬ has-ansi@2.0.0 </tspan>
<tspan x="10" y="1098">  │ │ │ └── ansi-regex@2.1.1 </tspan>
<tspan x="10" y="1114">  │ │ ├── strip-ansi@3.0.1 </tspan>
<tspan x="10" y="1130">  │ │ └── supports-color@2.0.0 </tspan>
<tspan x="10" y="1146">  │ ├─┬ vinyl@1.2.0 </tspan>
<tspan x="10" y="1162">  │ │ ├── clone@1.0.2 </tspan>
<tspan x="10" y="1178">  │ │ ├── clone-stats@0.0.1 </tspan>
<tspan x="10" y="1194">  │ │ └── replace-ext@0.0.1 </tspan>
<tspan x="10" y="1210">  │ └─┬ vinyl-sourcemaps-apply@0.2.1 </tspan>
<tspan x="10" y="1226">  │   └── source-map@0.5.6 </tspan>
<tspan x="10" y="1242">  ├── int64-buffer@0.1.9 </tspan>
<tspan x="10" y="1258">  ├─┬ msgpack-lite@0.1.26 </tspan>
<tspan x="10" y="1274">  │ ├── event-lite@0.1.1 </tspan>
<tspan x="10" y="1290">  │ ├── ieee754@1.1.8 </tspan>
<tspan x="10" y="1306">  │ └── isarray@1.0.0 </tspan>
<tspan x="10" y="1322">  ├── tweetnacl@0.14.5 </tspan>
<tspan x="10" y="1338">  ├── utf-8-validate@3.0.1 </tspan>
<tspan x="10" y="1354">  ├── when@3.7.8 </tspan>
<tspan x="10" y="1370">  └─┬ ws@2.2.3 </tspan>
<tspan x="10" y="1386">    ├── safe-buffer@5.0.1 </tspan>
<tspan x="10" y="1402">    └── ultron@1.1.0</tspan>
</text>
</svg>
